REM DIRINDEX 1\2,1\3,1\4,1\5,1\6
REM DIRNAME folder01,folder02,folder03,folder04,folder05,folder06
TITLE ""
FILE "Disc2Track03.mp3" MP3
  TRACK 01 AUDIO
    TITLE "3:cjc030_02094"
    INDEX 01 00:00:00
  TRACK 02 AUDIO
    TITLE "0:"
    INDEX 01 00:01:05
  TRACK 03 AUDIO
    TITLE "4:cjc030_02095"
    INDEX 01 00:01:13
  TRACK 04 AUDIO
    TITLE "0:"
    INDEX 01 00:02:63
  TRACK 05 AUDIO
    TITLE "5:cjc030_02096"
    INDEX 01 00:02:73
  TRACK 06 AUDIO
    TITLE "0:"
    INDEX 01 00:04:05
  TRACK 07 AUDIO
    TITLE "3:cjc030_02097"
    INDEX 01 00:04:62
  TRACK 08 AUDIO
    TITLE "0:"
    INDEX 01 00:06:00
  TRACK 09 AUDIO
    TITLE "4:cjc030_02098"
    INDEX 01 00:06:10
  TRACK 10 AUDIO
    TITLE "0:"
    INDEX 01 00:07:35
  TRACK 11 AUDIO
    TITLE "5:cjc030_02099"
    INDEX 01 00:07:41
  TRACK 12 AUDIO
    TITLE "0:"
    INDEX 01 00:08:58
  TRACK 13 AUDIO
    TITLE "6:cjc030_02100"
    INDEX 01 00:08:70
  TRACK 14 AUDIO
    TITLE "0:"
    INDEX 01 00:13:33
  TRACK 15 AUDIO
    TITLE "3:cjc030_02101"
    INDEX 01 00:14:04
  TRACK 16 AUDIO
    TITLE "0:"
    INDEX 01 00:15:17
  TRACK 17 AUDIO
    TITLE "4:cjc030_02102"
    INDEX 01 00:15:23
  TRACK 18 AUDIO
    TITLE "0:"
    INDEX 01 00:16:36
  TRACK 19 AUDIO
    TITLE "5:cjc030_02103"
    INDEX 01 00:16:44
  TRACK 20 AUDIO
    TITLE "0:"
    INDEX 01 00:17:55
  TRACK 21 AUDIO
    TITLE "6:cjc030_02104"
    INDEX 01 00:17:70
  TRACK 22 AUDIO
    TITLE "0:"
    INDEX 01 00:22:21
  TRACK 23 AUDIO
    TITLE "3:cjc030_02105"
    INDEX 01 00:22:68
  TRACK 24 AUDIO
    TITLE "0:"
    INDEX 01 00:24:16
  TRACK 25 AUDIO
    TITLE "4:cjc030_02106"
    INDEX 01 00:24:25
  TRACK 26 AUDIO
    TITLE "0:"
    INDEX 01 00:27:57
  TRACK 27 AUDIO
    TITLE "5:cjc030_02107"
    INDEX 01 00:27:67
  TRACK 28 AUDIO
    TITLE "0:"
    INDEX 01 00:29:15
  TRACK 29 AUDIO
    TITLE "6:cjc030_02108"
    INDEX 01 00:29:25
  TRACK 30 AUDIO
    TITLE "0:"
    INDEX 01 00:32:56
  TRACK 31 AUDIO
    TITLE "3:cjc030_02109"
    INDEX 01 00:33:28
  TRACK 32 AUDIO
    TITLE "0:"
    INDEX 01 00:34:42
  TRACK 33 AUDIO
    TITLE "4:cjc030_02110"
    INDEX 01 00:34:51
  TRACK 34 AUDIO
    TITLE "0:"
    INDEX 01 00:36:25
  TRACK 35 AUDIO
    TITLE "5:cjc030_02111"
    INDEX 01 00:36:33
  TRACK 36 AUDIO
    TITLE "0:"
    INDEX 01 00:37:46
  TRACK 37 AUDIO
    TITLE "6:cjc030_02112"
    INDEX 01 00:37:59
  TRACK 38 AUDIO
    TITLE "0:"
    INDEX 01 00:40:17
  TRACK 39 AUDIO
    TITLE "3:cjc030_02113"
    INDEX 01 00:40:66
  TRACK 40 AUDIO
    TITLE "0:"
    INDEX 01 00:41:63
  TRACK 41 AUDIO
    TITLE "4:cjc030_02114"
    INDEX 01 00:41:71
  TRACK 42 AUDIO
    TITLE "0:"
    INDEX 01 00:42:70
  TRACK 43 AUDIO
    TITLE "5:cjc030_02115"
    INDEX 01 00:43:03
  TRACK 44 AUDIO
    TITLE "0:"
    INDEX 01 00:43:72
  TRACK 45 AUDIO
    TITLE "6:cjc030_02116"
    INDEX 01 00:44:12
  TRACK 46 AUDIO
    TITLE "0:"
    INDEX 01 00:48:59
  TRACK 47 AUDIO
    TITLE "3:cjc030_02117"
    INDEX 01 00:49:33
  TRACK 48 AUDIO
    TITLE "0:"
    INDEX 01 00:50:35
  TRACK 49 AUDIO
    TITLE "4:cjc030_02118"
    INDEX 01 00:50:44
  TRACK 50 AUDIO
    TITLE "0:"
    INDEX 01 00:52:73
  TRACK 51 AUDIO
    TITLE "5:cjc030_02119"
    INDEX 01 00:53:04
  TRACK 52 AUDIO
    TITLE "0:"
    INDEX 01 00:54:09
  TRACK 53 AUDIO
    TITLE "6:cjc030_02120"
    INDEX 01 00:54:19
  TRACK 54 AUDIO
    TITLE "0:"
    INDEX 01 00:56:57
  TRACK 55 AUDIO
    TITLE "3:cjc030_02121"
    INDEX 01 00:57:33
  TRACK 56 AUDIO
    TITLE "0:"
    INDEX 01 00:58:54
  TRACK 57 AUDIO
    TITLE "4:cjc030_02122"
    INDEX 01 00:58:62
  TRACK 58 AUDIO
    TITLE "0:"
    INDEX 01 00:59:67
  TRACK 59 AUDIO
    TITLE "5:cjc030_02123"
    INDEX 01 00:59:73
  TRACK 60 AUDIO
    TITLE "0:"
    INDEX 01 01:01:21
  TRACK 61 AUDIO
    TITLE "6:cjc030_02124"
    INDEX 01 01:01:34
  TRACK 62 AUDIO
    TITLE "0:"
    INDEX 01 01:02:71
  TRACK 63 AUDIO
    TITLE "3:cjc030_02125"
    INDEX 01 01:03:43
  TRACK 64 AUDIO
    TITLE "0:"
    INDEX 01 01:04:72
  TRACK 65 AUDIO
    TITLE "4:cjc030_02126"
    INDEX 01 01:05:07
  TRACK 66 AUDIO
    TITLE "0:"
    INDEX 01 01:05:71
  TRACK 67 AUDIO
    TITLE "5:cjc030_02127"
    INDEX 01 01:06:04
  TRACK 68 AUDIO
    TITLE "0:"
    INDEX 01 01:07:31
